<svg width="512" height="512" viewBox="0 0 512 512" fill="none" xmlns="http://www.w3.org/2000/svg">
    <path d="M252.352 246.633C286.234 246.633 315.569 234.48 339.546 210.503C363.515 186.531 375.671 157.199 375.671 123.313C375.671 89.4368 363.519 60.1019 339.542 36.1209C315.565 12.152 286.23 0 252.352 0C218.465 0 189.132 12.152 165.16 36.1249C141.188 60.0979 129.031 89.4338 129.031 123.313C129.031 157.199 141.187 186.535 165.161 210.508C189.141 234.477 218.477 246.633 252.351 246.633H252.352ZM186.379 57.3399C204.773 38.9449 226.352 30.0039 252.352 30.0039C278.348 30.0039 299.929 38.9449 318.327 57.3399C336.722 75.7379 345.667 97.3198 345.667 123.312C345.667 149.312 336.722 170.891 318.327 189.289C299.929 207.688 278.348 216.629 252.352 216.629C226.359 216.629 204.782 207.684 186.379 189.289C167.98 170.895 159.035 149.313 159.035 123.313C159.035 97.3198 167.98 75.7379 186.379 57.3399ZM468.128 393.702C467.436 383.726 466.038 372.842 463.979 361.351C461.901 349.772 459.226 338.827 456.022 328.823C452.71 318.483 448.214 308.273 442.647 298.487C436.877 288.331 430.097 279.487 422.487 272.21C414.53 264.597 404.788 258.476 393.522 254.011C382.296 249.571 369.854 247.321 356.546 247.321C351.319 247.321 346.265 249.465 336.503 255.82C329.564 260.339 322.605 264.826 315.624 269.28C308.917 273.554 299.831 277.558 288.608 281.183C277.66 284.726 266.543 286.523 255.566 286.523C244.598 286.523 233.48 284.726 222.523 281.183C211.313 277.561 202.223 273.558 195.527 269.284C187.757 264.319 180.727 259.788 174.629 255.815C164.875 249.461 159.82 247.316 154.594 247.316C141.281 247.316 128.844 249.57 117.621 254.016C106.363 258.472 96.6169 264.593 88.6519 272.214C81.0429 279.495 74.2619 288.334 68.4959 298.487C62.938 308.272 58.438 318.479 55.125 328.827C51.925 338.831 49.25 349.772 47.172 361.351C45.109 372.827 43.715 383.714 43.023 393.714C42.343 403.491 42 413.667 42 423.948C42 450.675 50.496 472.311 67.2499 488.268C83.7969 504.016 105.688 511.999 132.316 511.999H378.847C405.467 511.999 427.358 504.015 443.909 488.269C460.667 472.323 469.163 450.679 469.163 423.944C469.159 413.628 468.812 403.452 468.128 393.702ZM423.222 466.53C412.288 476.936 397.772 481.995 378.842 481.995H132.317C113.384 481.995 98.8679 476.936 87.9379 466.535C77.2159 456.327 72.0049 442.394 72.0049 423.948C72.0049 414.354 72.3209 404.882 72.9549 395.788C73.5709 386.866 74.8329 377.065 76.7049 366.651C78.5519 356.366 80.9029 346.714 83.6999 337.976C86.3839 329.596 90.0439 321.3 94.5829 313.308C98.9149 305.69 103.899 299.155 109.399 293.89C114.544 288.964 121.029 284.933 128.669 281.91C135.735 279.112 143.677 277.581 152.298 277.35C153.348 277.91 155.22 278.976 158.251 280.952C164.419 284.972 171.528 289.558 179.388 294.577C188.248 300.226 199.661 305.327 213.298 309.729C227.239 314.237 241.458 316.526 255.571 316.526C269.685 316.526 283.907 314.237 297.84 309.733C311.488 305.323 322.898 300.226 331.77 294.569C339.813 289.429 346.723 284.976 352.89 280.952C355.922 278.979 357.793 277.909 358.844 277.351C367.469 277.581 375.41 279.112 382.48 281.909C390.117 284.933 396.602 288.968 401.746 293.889C407.246 299.151 412.23 305.687 416.562 313.312C421.105 321.3 424.77 329.601 427.449 337.972C430.25 346.722 432.605 356.37 434.449 366.647C436.316 377.081 437.582 386.886 438.199 395.792V395.8C438.836 404.858 439.156 414.327 439.16 423.948C439.156 442.398 433.945 456.328 423.223 466.53H423.222Z" fill="#010018"/>
</svg>
