<svg xmlns="http://www.w3.org/2000/svg" version="1.1" xmlns:xlink="http://www.w3.org/1999/xlink" xmlns:svgjs="http://svgjs.com/svgjs" width="512" height="512" x="0" y="0" viewBox="0 0 8.467 8.467" style="enable-background:new 0 0 512 512" xml:space="preserve" class="">
    <g>
        <path d="M3.711.794A2.923 2.923 0 0 0 .794 3.711a2.92 2.92 0 0 0 2.917 2.915 2.9 2.9 0 0 0 1.863-.676l1.658 1.658a.265.265 0 0 0 .376 0 .265.265 0 0 0 0-.376L5.95 5.574a2.9 2.9 0 0 0 .676-1.863A2.92 2.92 0 0 0 3.71.794zm0 .53a2.382 2.382 0 0 1 2.385 2.387A2.38 2.38 0 0 1 3.71 6.096 2.382 2.382 0 0 1 1.324 3.71a2.384 2.384 0 0 1 2.387-2.387z" fill="#e91072" data-original="#000000" opacity="1" class=""></path>
    </g>
</svg>