<svg width="639" height="614" viewBox="0 0 639 614" fill="none" xmlns="http://www.w3.org/2000/svg">
<path d="M74.752 427.296H282.112V436H25.6V79.136H74.752V427.296Z" fill="#EDF5FF"/>
<path d="M471.176 222.496C587.912 232.224 618.12 273.184 618.12 342.304C618.12 412.96 575.624 444.192 467.08 444.192C364.68 444.192 313.48 411.424 313.48 322.848L370.824 314.144C370.824 399.648 389.256 436 467.08 436C541.832 436 591.496 423.712 591.496 358.688C591.496 308.512 561.288 284.448 453.768 270.624C352.392 258.336 327.304 220.96 327.304 164.64C327.304 99.616 384.136 71.456 454.792 71.456C543.88 71.456 596.104 103.712 596.104 182.56L541.32 189.728C541.32 121.12 538.248 79.648 454.792 79.648C403.592 79.648 352.904 91.424 352.904 148.768C352.904 189.728 391.816 215.84 471.176 222.496Z" fill="#EDF5FF"/>
</svg>
