<svg width="3209" height="614" viewBox="0 0 3209 614" fill="none" xmlns="http://www.w3.org/2000/svg">
    <path d="M74.752 427.296H282.112V436H25.6V79.136H74.752V427.296Z" fill="#E91072"/>
    <path d="M298.92 308C298.92 218.4 364.968 171.808 448.424 171.808C532.392 171.808 597.928 218.4 597.928 308C597.928 397.6 532.392 444.192 448.424 444.192C364.968 444.192 298.92 397.6 298.92 308ZM448.424 180C385.448 180 349.096 219.424 349.096 308C349.096 395.552 379.304 436 448.424 436C516.52 436 547.752 395.552 547.752 308C547.752 219.424 512.424 180 448.424 180Z" fill="#E91072"/>
    <path d="M619.36 180H671.584L766.304 423.712L848.736 180H857.952L770.912 436H718.688L619.36 180Z" fill="#E91072"/>
    <path d="M1022.77 444.192C926 444.192 879.92 386.336 879.92 308C879.92 229.664 930.608 172.32 1022.77 172.32C1130.29 172.32 1141.55 246.56 1141.55 332.064H932.656C938.8 391.968 969.008 435.488 1022.77 435.488C1069.36 435.488 1111.34 421.664 1144.11 392.992L1148.21 398.112C1139.5 405.28 1102.13 444.192 1022.77 444.192ZM1022.77 181.024C948.016 181.024 928.048 263.456 932.144 323.36H1131.82C1131.82 246.048 1116.98 181.024 1022.77 181.024Z" fill="#E91072"/>
    <path d="M1542.18 222.496C1658.91 232.224 1689.12 273.184 1689.12 342.304C1689.12 412.96 1646.62 444.192 1538.08 444.192C1435.68 444.192 1384.48 411.424 1384.48 322.848L1441.82 314.144C1441.82 399.648 1460.26 436 1538.08 436C1612.83 436 1662.5 423.712 1662.5 358.688C1662.5 308.512 1632.29 284.448 1524.77 270.624C1423.39 258.336 1398.3 220.96 1398.3 164.64C1398.3 99.616 1455.14 71.456 1525.79 71.456C1614.88 71.456 1667.1 103.712 1667.1 182.56L1612.32 189.728C1612.32 121.12 1609.25 79.648 1525.79 79.648C1474.59 79.648 1423.9 91.424 1423.9 148.768C1423.9 189.728 1462.82 215.84 1542.18 222.496Z" fill="#E91072"/>
    <path d="M1772.24 569.632H1723.6V180H1772.24V309.536C1774.8 294.688 1777.36 278.816 1782.48 263.968C1803.47 199.456 1831.63 171.296 1888.46 171.296C1962.7 171.296 2010.32 225.056 2010.32 310.56C2010.32 423.712 1942.22 443.68 1858.26 443.68C1815.25 443.68 1786.06 430.88 1772.24 424.224C1772.24 428.832 1772.24 569.632 1772.24 569.632ZM1790.67 268.576C1775.82 320.288 1772.75 363.808 1772.24 415.008C1786.06 421.664 1815.25 434.464 1858.26 434.464C1921.74 434.464 1960.14 418.592 1960.14 311.072C1960.14 236.32 1944.27 180 1888.98 180C1843.41 180 1810.13 198.944 1790.67 268.576Z" fill="#E91072"/>
    <path d="M2142.46 443.68C2100.99 443.68 2033.92 437.024 2033.92 342.816C2033.92 303.904 2054.91 269.6 2100.48 257.312L2051.84 230.688C2071.81 196.384 2100.48 172.832 2190.08 172.832C2255.1 172.832 2307.33 186.656 2307.33 275.232V436H2259.2V307.488C2247.94 376.096 2226.43 443.68 2142.46 443.68ZM2141.95 260.384C2111.23 260.384 2084.1 283.936 2084.1 347.936C2084.1 415.008 2111.23 436 2141.95 436C2187.52 436 2222.34 417.568 2241.79 347.424C2249.47 319.264 2255.62 289.056 2257.66 260.384H2141.95ZM2109.18 254.752C2113.79 253.216 2128.64 251.68 2141.95 251.68H2258.69C2258.69 199.968 2254.59 179.488 2190.08 179.488C2134.27 179.488 2113.79 213.28 2109.18 254.752Z" fill="#E91072"/>
    <path d="M2346.6 180H2395.24V329.504C2405.99 266.016 2433.64 171.808 2511.46 171.808C2547.82 171.808 2564.71 195.36 2564.71 216.864C2564.71 245.536 2541.67 264.992 2516.07 272.672L2513.51 264.48C2535.53 257.312 2556.01 242.976 2556.01 216.864C2556.01 199.456 2542.18 181.024 2511.98 181.024C2410.09 181.024 2395.24 361.76 2395.24 436H2346.6V180Z" fill="#E91072"/>
    <path d="M2586.6 436V55.584H2635.24V296.736C2660.33 296.736 2691.05 295.712 2711.02 299.296L2786.79 180H2797.03L2720.23 300.832C2794.47 316.192 2815.98 365.856 2815.98 436H2765.8C2765.8 368.928 2765.8 305.44 2678.76 305.44H2635.24V436H2586.6Z" fill="#E91072"/>
    <path d="M2847.6 55.584H2896.24V436H2847.6V55.584Z" fill="#E91072"/>
    <path d="M3070.77 444.192C2974 444.192 2927.92 386.336 2927.92 308C2927.92 229.664 2978.61 172.32 3070.77 172.32C3178.29 172.32 3189.55 246.56 3189.55 332.064H2980.66C2986.8 391.968 3017.01 435.488 3070.77 435.488C3117.36 435.488 3159.34 421.664 3192.11 392.992L3196.21 398.112C3187.5 405.28 3150.13 444.192 3070.77 444.192ZM3070.77 181.024C2996.02 181.024 2976.05 263.456 2980.14 323.36H3179.82C3179.82 246.048 3164.98 181.024 3070.77 181.024Z" fill="#E91072"/>
</svg>
